<svg xmlns="http://www.w3.org/2000/svg" xmlns:xlink="http://www.w3.org/1999/xlink" xmlns:lucid="lucid" width="1127.1" height="711.33"><g transform="translate(1721.7987738424845 -575.7670069431325)" lucid:page-tab-id="0_0"><path d="M-2000 500h1500v1000h-1500z" fill="#f2f3f5"/><path d="M-1485.1 1010.4c0 7.46-30.72 13.5-68.63 13.5-37.9 0-68.63-6.04-68.63-13.5V902.3c0-7.46 30.73-13.5 68.63-13.5 37.9 0 68.63 6.04 68.63 13.5z" stroke="#3a414a" stroke-width="3" fill="#cc4e00"/><path d="M-1485.1 902.3c0 7.46-30.72 13.5-68.63 13.5-37.9 0-68.63-6.04-68.63-13.5" stroke="#3a414a" stroke-width="3" fill="none"/><use xlink:href="#a" transform="matrix(1,0,0,1,-1617.3584808355483,920.8097349193233) translate(33.016666666666666 54.83125)"/><path d="M-1622.36 1039.24a6 6 0 0 1 6-6h137.03a6 6 0 0 1 6 6v29.2a6 6 0 0 1-6 6h-137.03a6 6 0 0 1-6-6z" fill="none"/><use xlink:href="#b" transform="matrix(1,0,0,1,-1617.3584808355483,1038.2394457965315) translate(0 21.2)"/><use xlink:href="#c" transform="matrix(1,0,0,1,-1617.3584808355483,1038.2394457965315) translate(59.07777777777776 21.2)"/><path d="M-1482.1 956.35h52.42a24 24 0 0 0 24-24V823.5a24 24 0 0 1 24-24h92.3" stroke="#3a414a" stroke-width="3" fill="none"/><path d="M-1482.06 957.82h-1.54v-2.95h1.54z" stroke="#3a414a" stroke-width=".05" fill="#3a414a"/><path d="M-1274.88 799.5l-13 7.5v-15z" stroke="#3a414a" stroke-width="3" fill="#3a414a"/><path d="M-1482.62 956.17h52.94a24 24 0 0 1 24 24v104.1a24 24 0 0 0 24 24h92.3M-1482.58 956.17h-1.54" stroke="#3a414a" stroke-width="3" fill="none"/><path d="M-1274.88 1108.27l-13 7.5v-15z" stroke="#3a414a" stroke-width="3" fill="#3a414a"/><path d="M-1133.12 853.54c0 7.46-30.72 13.5-68.63 13.5-37.9 0-68.63-6.04-68.63-13.5v-108.1c0-7.46 30.73-13.5 68.63-13.5 37.9 0 68.63 6.04 68.63 13.5z" stroke="#3a414a" stroke-width="3" fill="#ced4db"/><path d="M-1133.12 745.44c0 7.46-30.72 13.5-68.63 13.5-37.9 0-68.63-6.04-68.63-13.5" stroke="#3a414a" stroke-width="3" fill="none"/><use xlink:href="#a" transform="matrix(1,0,0,1,-1265.3784777078,763.9517083010352) translate(33.016666666666666 54.83125)"/><path d="M-1245.5 884.06a6 6 0 0 1 6-6h137.04a6 6 0 0 1 6 6v29.2a6 6 0 0 1-6 6h-137.03a6 6 0 0 1-6-6z" fill="none"/><use xlink:href="#d" transform="matrix(1,0,0,1,-1240.4885010015448,883.0566176425538) translate(0 21.2)"/><path d="M-1133.12 1162.32c0 7.46-30.72 13.5-68.63 13.5-37.9 0-68.63-6.04-68.63-13.5v-108.1c0-7.46 30.73-13.5 68.63-13.5 37.9 0 68.63 6.04 68.63 13.5z" stroke="#3a414a" stroke-width="3" fill="#ced4db"/><path d="M-1133.12 1054.22c0 7.46-30.72 13.5-68.63 13.5-37.9 0-68.63-6.04-68.63-13.5" stroke="#3a414a" stroke-width="3" fill="none"/><use xlink:href="#a" transform="matrix(1,0,0,1,-1265.3784777078,1072.7341421522103) translate(33.016666666666666 54.83125)"/><path d="M-1252.63 1189.95a6 6 0 0 1 6-6h137.02a6 6 0 0 1 6 6v29.2a6 6 0 0 1-6 6h-137.04a6 6 0 0 1-6-6z" fill="none"/><use xlink:href="#e" transform="matrix(1,0,0,1,-1247.6348587159393,1188.9510149716866) translate(0 21.2)"/><path d="M-1130.12 1108.25l263.32-3.12" stroke="#3a414a" stroke-width="3" fill="none"/><path d="M-1130.06 1109.73l-1.56.02v-2.95l1.52-.02z" stroke="#3a414a" stroke-width=".05" fill="#3a414a"/><path d="M-852.3 1104.96l-12.9 7.65-.18-15z" stroke="#3a414a" stroke-width="3" fill="#3a414a"/><path d="M-1131.62 792.8l264.82 3.13M-1131.58 792.8h-1.54" stroke="#3a414a" stroke-width="3" fill="none"/><path d="M-852.3 796.1l-13.08 7.35.17-15z" stroke="#3a414a" stroke-width="3" fill="#3a414a"/><path d="M-1130.12 1088.74h115.64a24 24 0 0 0 24-24v-244.6a24 24 0 0 1 24-24h99.68" stroke="#3a414a" stroke-width="3" fill="none"/><path d="M-1130.08 1090.2h-1.54v-2.93h1.54z" stroke="#3a414a" stroke-width=".05" fill="#3a414a"/><path d="M-852.3 796.14l-13 7.5v-15z" stroke="#3a414a" stroke-width="3" fill="#3a414a"/><path d="M-710.54 850.2c0 7.45-30.73 13.5-68.63 13.5-37.9 0-68.64-6.05-68.64-13.5V742.1c0-7.47 30.72-13.52 68.63-13.52 37.9 0 68.63 6.05 68.63 13.5z" stroke="#3a414a" stroke-width="3" fill="#fcce14"/><path d="M-710.54 742.1c0 7.45-30.73 13.5-68.63 13.5-37.9 0-68.64-6.05-68.64-13.5" stroke="#3a414a" stroke-width="3" fill="none"/><use xlink:href="#a" transform="matrix(1,0,0,1,-842.8063848162684,760.6024999902461) translate(33.016666666666666 54.83125)"/><path d="M-710.54 1158.97c0 7.46-30.73 13.5-68.63 13.5-37.9 0-68.64-6.04-68.64-13.5v-108.1c0-7.46 30.72-13.5 68.63-13.5 37.9 0 68.63 6.04 68.63 13.5z" stroke="#3a414a" stroke-width="3" fill="#fcce14"/><path d="M-710.54 1050.87c0 7.47-30.73 13.52-68.63 13.52-37.9-.02-68.64-6.07-68.64-13.53" stroke="#3a414a" stroke-width="3" fill="none"/><use xlink:href="#a" transform="matrix(1,0,0,1,-842.8063848162684,1069.3849338414211) translate(33.016666666666666 54.83125)"/><path d="M-921.7 871.32a6 6 0 0 1 6-6h286a6 6 0 0 1 6 6v53.37a6 6 0 0 1-6 6h-286a6 6 0 0 1-6-6z" fill="none"/><use xlink:href="#f" transform="matrix(1,0,0,1,-916.6932981643138,870.3234083302164) translate(0 32.44444444444444)"/><use xlink:href="#g" transform="matrix(1,0,0,1,-916.6932981643138,870.3234083302164) translate(107.28395061728395 32.44444444444444)"/><use xlink:href="#h" transform="matrix(1,0,0,1,-916.6932981643138,870.3234083302164) translate(187.4691358024691 32.44444444444444)"/><use xlink:href="#i" transform="matrix(1,0,0,1,-916.6932981643138,870.3234083302164) translate(217.09876543209873 32.44444444444444)"/><path d="M-921.7 1189.95a6 6 0 0 1 6-6h315a6 6 0 0 1 6 6v34a6 6 0 0 1-6 6h-315a6 6 0 0 1-6-6z" fill="none"/><use xlink:href="#f" transform="matrix(1,0,0,1,-916.6932981643137,1188.9510149716868) translate(0 22.944444444444443)"/><use xlink:href="#g" transform="matrix(1,0,0,1,-916.6932981643137,1188.9510149716868) translate(107.28395061728395 22.944444444444443)"/><use xlink:href="#j" transform="matrix(1,0,0,1,-916.6932981643137,1188.9510149716868) translate(187.4691358024691 22.944444444444443)"/><use xlink:href="#k" transform="matrix(1,0,0,1,-916.6932981643137,1188.9510149716868) translate(236.7901234567901 22.944444444444443)"/><g fill="none"><path d="M-1381.6 614.1v671.5"/><path d="M-1381.6 614.1v4.5m0 5.96v8.95m0 5.98v8.95m0 5.97v8.95m0 5.97v8.96m0 5.96v8.96m0 5.97v8.95m0 5.97v8.94m0 5.97v8.96m0 5.97v8.96m0 5.95v8.96m0 5.98v8.95m0 5.97v8.95m0 5.97v8.95m0 5.97v8.96m0 5.96v8.96m0 5.97v8.94m0 5.97v8.96m0 5.97v8.95m0 5.97v8.96m0 5.97v8.96m0 5.97v8.95m0 5.97v8.95m0 5.97v8.95m0 5.96v8.96m0 5.96v8.96m0 5.97v8.96m0 5.97v8.95m0 5.97v8.95m0 5.97v8.96m0 5.96v8.95m0 5.97v8.95m0 5.97v8.95m0 5.96v8.95m0 5.98v8.95m0 5.97v8.96m0 5.97v8.95m0 5.97v8.95m0 5.97v8.95m0 5.97v8.94m0 5.97v8.97m0 5.97v8.95m0 5.96v8.95m0 5.98v8.95m0 5.97v8.95m0 5.97v4.48" stroke="#000" stroke-width="3" stroke-linecap="round"/></g><path d="M-1720.3 583.27a6 6 0 0 1 6-6h270.76a6 6 0 0 1 6 6v70.47a6 6 0 0 1-6 6h-270.76a6 6 0 0 1-6-6z" stroke="#3a414a" stroke-width="3" fill-opacity="0"/><path d="M-1702.7 595.5a6 6 0 0 1 6-6h235.56a6 6 0 0 1 6 6v46a6 6 0 0 1-6 6h-235.56a6 6 0 0 1-6-6z" fill="none"/><use xlink:href="#l" transform="matrix(1,0,0,1,-1697.7040633543145,594.4971076873672) translate(0 32.5)"/><use xlink:href="#m" transform="matrix(1,0,0,1,-1697.7040633543145,594.4971076873672) translate(137.66666666666666 32.5)"/><g fill="none"><path d="M-1009.08 614.1v671.5"/><path d="M-1009.08 614.1v4.5m0 5.96v8.95m0 5.98v8.95m0 5.97v8.95m0 5.97v8.96m0 5.96v8.96m0 5.97v8.95m0 5.97v8.94m0 5.97v8.96m0 5.97v8.96m0 5.95v8.96m0 5.98v8.95m0 5.97v8.95m0 5.97v8.95m0 5.97v8.96m0 5.96v8.96m0 5.97v8.94m0 5.97v8.96m0 5.97v8.95m0 5.97v8.96m0 5.97v8.96m0 5.97v8.95m0 5.97v8.95m0 5.97v8.95m0 5.96v8.96m0 5.96v8.96m0 5.97v8.96m0 5.97v8.95m0 5.97v8.95m0 5.97v8.95m0 5.97v8.95m0 5.97v8.95m0 5.97v8.95m0 5.96v8.95m0 5.98v8.95m0 5.97v8.96m0 5.97v8.95m0 5.97v8.95m0 5.97v8.95m0 5.97v8.94m0 5.97v8.97m0 5.97v8.95m0 5.96v8.95m0 5.98v8.95m0 5.97v8.95m0 5.97v4.48" stroke="#000" stroke-width="3" stroke-linecap="round"/></g><path d="M-1325.68 583.27a6 6 0 0 1 6-6H-1071a6 6 0 0 1 6 6v70.47a6 6 0 0 1-6 6h-248.68a6 6 0 0 1-6-6z" stroke="#3a414a" stroke-width="3" fill-opacity="0"/><path d="M-1308.08 595.5a6 6 0 0 1 6-6h208.68a6 6 0 0 1 6 6v46a6 6 0 0 1-6 6h-208.68a6 6 0 0 1-6-6z" fill="none"/><g><use xlink:href="#n" transform="matrix(1,0,0,1,-1303.0810693119154,594.4971076873672) translate(0 32.5)"/><use xlink:href="#o" transform="matrix(1,0,0,1,-1303.0810693119154,594.4971076873672) translate(110.7777777777778 32.5)"/></g><path d="M-915.8 583.27a6 6 0 0 1 6-6h248.66a6 6 0 0 1 6 6v70.47a6 6 0 0 1-6 6H-909.8a6 6 0 0 1-6-6z" stroke="#3a414a" stroke-width="3" fill-opacity="0"/><path d="M-888.14 595.5a6 6 0 0 1 6-6h193.34a6 6 0 0 1 6 6v46a6 6 0 0 1-6 6h-193.34a6 6 0 0 1-6-6z" fill="none"/><g><use xlink:href="#p" transform="matrix(1,0,0,1,-883.141864158062,594.4971076873672) translate(0 32.5)"/><use xlink:href="#o" transform="matrix(1,0,0,1,-883.141864158062,594.4971076873672) translate(95.44444444444444 32.5)"/></g><defs><path fill="#fff" d="M127-220V0H93v-220H8v-28h204v28h-85" id="q"/><path fill="#fff" d="M141-36C126-15 110 5 73 4 37 3 15-17 15-53c-1-64 63-63 125-63 3-35-9-54-41-54-24 1-41 7-42 31l-33-3c5-37 33-52 76-52 45 0 72 20 72 64v82c-1 20 7 32 28 27v20c-31 9-61-2-59-35zM48-53c0 20 12 33 32 33 41-3 63-29 60-74-43 2-92-5-92 41" id="r"/><path fill="#fff" d="M115-194c53 0 69 39 70 98 0 66-23 100-70 100C84 3 66-7 56-30L54 0H23l1-261h32v101c10-23 28-34 59-34zm-8 174c40 0 45-34 45-75 0-40-5-75-45-74-42 0-51 32-51 76 0 43 10 73 51 73" id="s"/><path fill="#fff" d="M24 0v-261h32V0H24" id="t"/><path fill="#fff" d="M100-194c63 0 86 42 84 106H49c0 40 14 67 53 68 26 1 43-12 49-29l28 8c-11 28-37 45-77 45C44 4 14-33 15-96c1-61 26-98 85-98zm52 81c6-60-76-77-97-28-3 7-6 17-6 28h103" id="u"/><g id="a"><use transform="matrix(0.07222222222222222,0,0,0.07222222222222222,0,0)" xlink:href="#q"/><use transform="matrix(0.07222222222222222,0,0,0.07222222222222222,12.927777777777777,0)" xlink:href="#r"/><use transform="matrix(0.07222222222222222,0,0,0.07222222222222222,27.37222222222222,0)" xlink:href="#s"/><use transform="matrix(0.07222222222222222,0,0,0.07222222222222222,41.81666666666666,0)" xlink:href="#t"/><use transform="matrix(0.07222222222222222,0,0,0.07222222222222222,47.52222222222222,0)" xlink:href="#u"/></g><path d="M233-177c-1 41-23 64-60 70L243 0h-38l-65-103H63V0H30v-248c88 3 205-21 203 71zM63-129c60-2 137 13 137-47 0-61-80-42-137-45v92" id="v"/><path d="M141-36C126-15 110 5 73 4 37 3 15-17 15-53c-1-64 63-63 125-63 3-35-9-54-41-54-24 1-41 7-42 31l-33-3c5-37 33-52 76-52 45 0 72 20 72 64v82c-1 20 7 32 28 27v20c-31 9-61-2-59-35zM48-53c0 20 12 33 32 33 41-3 63-29 60-74-43 2-92-5-92 41" id="w"/><path d="M206 0h-36l-40-164L89 0H53L-1-190h32L70-26l43-164h34l41 164 42-164h31" id="x"/><g id="b"><use transform="matrix(0.07222222222222222,0,0,0.07222222222222222,0,0)" xlink:href="#v"/><use transform="matrix(0.07222222222222222,0,0,0.07222222222222222,18.705555555555552,0)" xlink:href="#w"/><use transform="matrix(0.07222222222222222,0,0,0.07222222222222222,33.14999999999999,0)" xlink:href="#x"/></g><path d="M30-248c118-7 216 8 213 122C240-48 200 0 122 0H30v-248zM63-27c89 8 146-16 146-99s-60-101-146-95v194" id="y"/><path d="M59-47c-2 24 18 29 38 22v24C64 9 27 4 27-40v-127H5v-23h24l9-43h21v43h35v23H59v120" id="z"/><g id="c"><use transform="matrix(0.07222222222222222,0,0,0.07222222222222222,0,0)" xlink:href="#y"/><use transform="matrix(0.07222222222222222,0,0,0.07222222222222222,18.705555555555552,0)" xlink:href="#w"/><use transform="matrix(0.07222222222222222,0,0,0.07222222222222222,33.14999999999999,0)" xlink:href="#z"/><use transform="matrix(0.07222222222222222,0,0,0.07222222222222222,40.37222222222221,0)" xlink:href="#w"/></g><path d="M232-93c-1 65-40 97-104 97C67 4 28-28 28-90v-158h33c8 89-33 224 67 224 102 0 64-133 71-224h33v155" id="A"/><path d="M135-143c-3-34-86-38-87 0 15 53 115 12 119 90S17 21 10-45l28-5c4 36 97 45 98 0-10-56-113-15-118-90-4-57 82-63 122-42 12 7 21 19 24 35" id="B"/><path d="M100-194c63 0 86 42 84 106H49c0 40 14 67 53 68 26 1 43-12 49-29l28 8c-11 28-37 45-77 45C44 4 14-33 15-96c1-61 26-98 85-98zm52 81c6-60-76-77-97-28-3 7-6 17-6 28h103" id="C"/><path d="M114-163C36-179 61-72 57 0H25l-1-190h30c1 12-1 29 2 39 6-27 23-49 58-41v29" id="D"/><g id="d"><use transform="matrix(0.07222222222222222,0,0,0.07222222222222222,0,0)" xlink:href="#A"/><use transform="matrix(0.07222222222222222,0,0,0.07222222222222222,18.705555555555552,0)" xlink:href="#B"/><use transform="matrix(0.07222222222222222,0,0,0.07222222222222222,31.70555555555555,0)" xlink:href="#C"/><use transform="matrix(0.07222222222222222,0,0,0.07222222222222222,46.149999999999984,0)" xlink:href="#D"/><use transform="matrix(0.07222222222222222,0,0,0.07222222222222222,54.74444444444443,0)" xlink:href="#B"/></g><path d="M127-220V0H93v-220H8v-28h204v28h-85" id="E"/><g id="e"><use transform="matrix(0.07222222222222222,0,0,0.07222222222222222,0,0)" xlink:href="#E"/><use transform="matrix(0.07222222222222222,0,0,0.07222222222222222,14.37222222222222,0)" xlink:href="#x"/><use transform="matrix(0.07222222222222222,0,0,0.07222222222222222,33.07777777777777,0)" xlink:href="#C"/><use transform="matrix(0.07222222222222222,0,0,0.07222222222222222,47.52222222222221,0)" xlink:href="#C"/><use transform="matrix(0.07222222222222222,0,0,0.07222222222222222,61.966666666666654,0)" xlink:href="#z"/><use transform="matrix(0.07222222222222222,0,0,0.07222222222222222,69.18888888888887,0)" xlink:href="#B"/></g><path d="M212-179c-10-28-35-45-73-45-59 0-87 40-87 99 0 60 29 101 89 101 43 0 62-24 78-52l27 14C228-24 195 4 139 4 59 4 22-46 18-125c-6-104 99-153 187-111 19 9 31 26 39 46" id="F"/><path d="M117-194c89-4 53 116 60 194h-32v-121c0-31-8-49-39-48C34-167 62-67 57 0H25l-1-190h30c1 10-1 24 2 32 11-22 29-35 61-36" id="G"/><path d="M85-194c31 0 48 13 60 33l-1-100h32l1 261h-30c-2-10 0-23-3-31C134-8 116 4 85 4 32 4 16-35 15-94c0-66 23-100 70-100zm9 24c-40 0-46 34-46 75 0 40 6 74 45 74 42 0 51-32 51-76 0-42-9-74-50-73" id="H"/><path d="M24-231v-30h32v30H24zM24 0v-190h32V0H24" id="I"/><g id="f"><use transform="matrix(0.06172839506172839,0,0,0.06172839506172839,0,0)" xlink:href="#F"/><use transform="matrix(0.06172839506172839,0,0,0.06172839506172839,15.987654320987653,0)" xlink:href="#w"/><use transform="matrix(0.06172839506172839,0,0,0.06172839506172839,28.333333333333332,0)" xlink:href="#G"/><use transform="matrix(0.06172839506172839,0,0,0.06172839506172839,40.67901234567901,0)" xlink:href="#H"/><use transform="matrix(0.06172839506172839,0,0,0.06172839506172839,53.02469135802469,0)" xlink:href="#I"/><use transform="matrix(0.06172839506172839,0,0,0.06172839506172839,57.901234567901234,0)" xlink:href="#H"/><use transform="matrix(0.06172839506172839,0,0,0.06172839506172839,70.24691358024691,0)" xlink:href="#w"/><use transform="matrix(0.06172839506172839,0,0,0.06172839506172839,82.5925925925926,0)" xlink:href="#z"/><use transform="matrix(0.06172839506172839,0,0,0.06172839506172839,88.76543209876543,0)" xlink:href="#C"/></g><path d="M84 4C-5 8 30-112 23-190h32v120c0 31 7 50 39 49 72-2 45-101 50-169h31l1 190h-30c-1-10 1-25-2-33-11 22-28 36-60 37" id="J"/><path d="M115-194c55 1 70 41 70 98S169 2 115 4C84 4 66-9 55-30l1 105H24l-1-265h31l2 30c10-21 28-34 59-34zm-8 174c40 0 45-34 45-75s-6-73-45-74c-42 0-51 32-51 76 0 43 10 73 51 73" id="K"/><path d="M100-194c62-1 85 37 85 99 1 63-27 99-86 99S16-35 15-95c0-66 28-99 85-99zM99-20c44 1 53-31 53-75 0-43-8-75-51-75s-53 32-53 75 10 74 51 75" id="L"/><g id="g"><use transform="matrix(0.06172839506172839,0,0,0.06172839506172839,0,0)" xlink:href="#B"/><use transform="matrix(0.06172839506172839,0,0,0.06172839506172839,11.11111111111111,0)" xlink:href="#J"/><use transform="matrix(0.06172839506172839,0,0,0.06172839506172839,23.45679012345679,0)" xlink:href="#K"/><use transform="matrix(0.06172839506172839,0,0,0.06172839506172839,35.80246913580247,0)" xlink:href="#K"/><use transform="matrix(0.06172839506172839,0,0,0.06172839506172839,48.148148148148145,0)" xlink:href="#L"/><use transform="matrix(0.06172839506172839,0,0,0.06172839506172839,60.49382716049382,0)" xlink:href="#D"/><use transform="matrix(0.06172839506172839,0,0,0.06172839506172839,67.8395061728395,0)" xlink:href="#z"/></g><path d="M115-194c53 0 69 39 70 98 0 66-23 100-70 100C84 3 66-7 56-30L54 0H23l1-261h32v101c10-23 28-34 59-34zm-8 174c40 0 45-34 45-75 0-40-5-75-45-74-42 0-51 32-51 76 0 43 10 73 51 73" id="M"/><path d="M179-190L93 31C79 59 56 82 12 73V49c39 6 53-20 64-50L1-190h34L92-34l54-156h33" id="N"/><g id="h"><use transform="matrix(0.06172839506172839,0,0,0.06172839506172839,0,0)" xlink:href="#M"/><use transform="matrix(0.06172839506172839,0,0,0.06172839506172839,12.345679012345679,0)" xlink:href="#N"/></g><g id="i"><use transform="matrix(0.06172839506172839,0,0,0.06172839506172839,0,0)" xlink:href="#B"/><use transform="matrix(0.06172839506172839,0,0,0.06172839506172839,11.11111111111111,0)" xlink:href="#z"/><use transform="matrix(0.06172839506172839,0,0,0.06172839506172839,17.28395061728395,0)" xlink:href="#w"/><use transform="matrix(0.06172839506172839,0,0,0.06172839506172839,29.629629629629626,0)" xlink:href="#z"/><use transform="matrix(0.06172839506172839,0,0,0.06172839506172839,35.80246913580247,0)" xlink:href="#C"/></g><path d="M108 0H70L1-190h34L89-25l56-165h34" id="O"/><g id="j"><use transform="matrix(0.06172839506172839,0,0,0.06172839506172839,0,0)" xlink:href="#L"/><use transform="matrix(0.06172839506172839,0,0,0.06172839506172839,12.345679012345679,0)" xlink:href="#O"/><use transform="matrix(0.06172839506172839,0,0,0.06172839506172839,23.45679012345679,0)" xlink:href="#C"/><use transform="matrix(0.06172839506172839,0,0,0.06172839506172839,35.80246913580247,0)" xlink:href="#D"/></g><path d="M210-169c-67 3-38 105-44 169h-31v-121c0-29-5-50-35-48C34-165 62-65 56 0H25l-1-190h30c1 10-1 24 2 32 10-44 99-50 107 0 11-21 27-35 58-36 85-2 47 119 55 194h-31v-121c0-29-5-49-35-48" id="P"/><g id="k"><use transform="matrix(0.06172839506172839,0,0,0.06172839506172839,0,0)" xlink:href="#z"/><use transform="matrix(0.06172839506172839,0,0,0.06172839506172839,6.172839506172839,0)" xlink:href="#I"/><use transform="matrix(0.06172839506172839,0,0,0.06172839506172839,11.049382716049383,0)" xlink:href="#P"/><use transform="matrix(0.06172839506172839,0,0,0.06172839506172839,29.50617283950617,0)" xlink:href="#C"/></g><path d="M160-131c35 5 61 23 61 61C221 17 115-2 30 0v-248c76 3 177-17 177 60 0 33-19 50-47 57zm-97-11c50-1 110 9 110-42 0-47-63-36-110-37v79zm0 115c55-2 124 14 124-45 0-56-70-42-124-44v89" id="Q"/><path d="M9 0v-24l116-142H16v-24h144v24L44-24h123V0H9" id="R"/><g id="l"><use transform="matrix(0.1111111111111111,0,0,0.1111111111111111,0,0)" xlink:href="#Q"/><use transform="matrix(0.1111111111111111,0,0,0.1111111111111111,26.666666666666664,0)" xlink:href="#D"/><use transform="matrix(0.1111111111111111,0,0,0.1111111111111111,39.888888888888886,0)" xlink:href="#L"/><use transform="matrix(0.1111111111111111,0,0,0.1111111111111111,62.11111111111111,0)" xlink:href="#G"/><use transform="matrix(0.1111111111111111,0,0,0.1111111111111111,84.33333333333333,0)" xlink:href="#R"/><use transform="matrix(0.1111111111111111,0,0,0.1111111111111111,104.33333333333333,0)" xlink:href="#C"/></g><path d="M30 0v-248h33v221h125V0H30" id="S"/><g id="m"><use transform="matrix(0.1111111111111111,0,0,0.1111111111111111,0,0)" xlink:href="#S"/><use transform="matrix(0.1111111111111111,0,0,0.1111111111111111,22.22222222222222,0)" xlink:href="#w"/><use transform="matrix(0.1111111111111111,0,0,0.1111111111111111,44.44444444444444,0)" xlink:href="#N"/><use transform="matrix(0.1111111111111111,0,0,0.1111111111111111,64.44444444444444,0)" xlink:href="#C"/><use transform="matrix(0.1111111111111111,0,0,0.1111111111111111,86.66666666666666,0)" xlink:href="#D"/></g><path d="M185-189c-5-48-123-54-124 2 14 75 158 14 163 119 3 78-121 87-175 55-17-10-28-26-33-46l33-7c5 56 141 63 141-1 0-78-155-14-162-118-5-82 145-84 179-34 5 7 8 16 11 25" id="T"/><path d="M24 0v-261h32V0H24" id="U"/><g id="n"><use transform="matrix(0.1111111111111111,0,0,0.1111111111111111,0,0)" xlink:href="#T"/><use transform="matrix(0.1111111111111111,0,0,0.1111111111111111,26.666666666666664,0)" xlink:href="#I"/><use transform="matrix(0.1111111111111111,0,0,0.1111111111111111,35.44444444444444,0)" xlink:href="#U"/><use transform="matrix(0.1111111111111111,0,0,0.1111111111111111,44.22222222222222,0)" xlink:href="#O"/><use transform="matrix(0.1111111111111111,0,0,0.1111111111111111,64.22222222222223,0)" xlink:href="#C"/><use transform="matrix(0.1111111111111111,0,0,0.1111111111111111,86.44444444444446,0)" xlink:href="#D"/></g><g id="o"><use transform="matrix(0.1111111111111111,0,0,0.1111111111111111,0,0)" xlink:href="#S"/><use transform="matrix(0.1111111111111111,0,0,0.1111111111111111,22.22222222222222,0)" xlink:href="#w"/><use transform="matrix(0.1111111111111111,0,0,0.1111111111111111,44.44444444444444,0)" xlink:href="#N"/><use transform="matrix(0.1111111111111111,0,0,0.1111111111111111,64.44444444444444,0)" xlink:href="#C"/><use transform="matrix(0.1111111111111111,0,0,0.1111111111111111,86.66666666666666,0)" xlink:href="#D"/></g><path d="M143 4C61 4 22-44 18-125c-5-107 100-154 193-111 17 8 29 25 37 43l-32 9c-13-25-37-40-76-40-61 0-88 39-88 99 0 61 29 100 91 101 35 0 62-11 79-27v-45h-74v-28h105v86C228-13 192 4 143 4" id="V"/><g id="p"><use transform="matrix(0.1111111111111111,0,0,0.1111111111111111,0,0)" xlink:href="#V"/><use transform="matrix(0.1111111111111111,0,0,0.1111111111111111,31.11111111111111,0)" xlink:href="#L"/><use transform="matrix(0.1111111111111111,0,0,0.1111111111111111,53.33333333333333,0)" xlink:href="#U"/><use transform="matrix(0.1111111111111111,0,0,0.1111111111111111,62.11111111111111,0)" xlink:href="#H"/></g></defs></g></svg>